<svg id="Layer_1" data-name="Layer 1" xmlns="http://www.w3.org/2000/svg" viewBox="0 0 98.66 12.49"><defs><style>.cls-1{fill:#e0e3e8;}.cls-2{fill:#2a2c6b;}.cls-3{opacity:0;}.cls-4{fill:#fff;}.cls-5{fill:#f26324;}.cls-6{fill:#e92328;}.cls-7{fill:#f59e21;}.cls-8{fill:#2b6eb6;}.cls-9{fill:#7373b5;}.cls-10{fill:#ec2227;}.cls-11{fill:#15a1db;}.cls-12{fill:#ee7725;}.cls-13{fill:#231f20;}</style></defs><g id="visa-light-large"><rect class="cls-1" width="18.73" height="12.49" rx="1.56"/><path class="cls-2" d="M9.31,4.44,8.53,8.05H7.59l.78-3.61Zm3.93,2.35.49-1.36L14,6.79Zm1,1.28h.87l-.76-3.61h-.78a.41.41,0,0,0-.39.26l-1.4,3.35h1L13,7.53h1.18ZM11.84,6.9c0-1-1.3-1.05-1.3-1.44,0-.13.12-.26.39-.3a1.83,1.83,0,0,1,.92.16L12,4.54a2.58,2.58,0,0,0-.87-.16c-.92,0-1.56.49-1.56,1.2,0,.52.46.8.81,1s.49.29.49.44-.29.36-.56.36a2.08,2.08,0,0,1-1-.23l-.17.78a2.82,2.82,0,0,0,1,.19c1,0,1.62-.49,1.62-1.24M8,4.43,6.48,8h-1L4.72,5.16a.4.4,0,0,0-.22-.32,3.88,3.88,0,0,0-.93-.3l0-.11H5.19a.44.44,0,0,1,.43.37L6,6.89,7,4.43Z"/></g><g id="mastercard-light-large"><rect class="cls-1" x="19.9" width="18.73" height="12.49" rx="1.56"/><g class="cls-3"><rect class="cls-4" x="21.72" y="1.25" width="15.11" height="9.99"/></g><rect class="cls-5" x="27.28" y="2.99" width="3.98" height="6.51"/><path class="cls-6" d="M27.71,6.24A4.13,4.13,0,0,1,29.27,3a4.14,4.14,0,1,0,0,6.51A4.13,4.13,0,0,1,27.71,6.24Z"/><path class="cls-7" d="M35.57,8.81V8.68h.06v0h-.14v0h0v.13Zm.26,0V8.65h0l0,.11,0-.11h0v.16h0V8.69l0,.1h0l.05-.1v.12Z"/><path class="cls-7" d="M36,6.24a4.14,4.14,0,0,1-6.7,3.26A4.15,4.15,0,0,0,30,3.69a3.81,3.81,0,0,0-.69-.7A4.14,4.14,0,0,1,36,6.24Z"/></g><g id="americanexpress-light-large"><rect class="cls-1" x="39.91" width="18.73" height="12.49" rx="1.56"/><polygon class="cls-8" points="41.34 4.11 41.55 4.63 40.84 4.63 41.05 4.11 41.2 3.77 41.34 4.11"/><path class="cls-8" d="M49,3.79h-.62v.48H49a.22.22,0,0,0,.19-.06A.18.18,0,0,0,49.3,4a.23.23,0,0,0-.08-.18A.22.22,0,0,0,49,3.79Zm0,0h-.62v.48H49a.22.22,0,0,0,.19-.06A.18.18,0,0,0,49.3,4a.23.23,0,0,0-.08-.18A.22.22,0,0,0,49,3.79Zm0,0h-.62v.48H49a.22.22,0,0,0,.19-.06A.18.18,0,0,0,49.3,4a.23.23,0,0,0-.08-.18A.22.22,0,0,0,49,3.79Zm4.65.32-.11-.34h0l-.14.34-.2.52h.69Zm0,0-.11-.34h0l-.14.34-.2.52h.69ZM49,3.79h-.62v.48H49a.22.22,0,0,0,.19-.06A.18.18,0,0,0,49.3,4a.23.23,0,0,0-.08-.18A.22.22,0,0,0,49,3.79Zm0,0h-.62v.48H49a.22.22,0,0,0,.19-.06A.18.18,0,0,0,49.3,4a.23.23,0,0,0-.08-.18A.22.22,0,0,0,49,3.79Zm4.65.32-.11-.34h0l-.14.34-.2.52h.69Zm0,0-.11-.34h0l-.14.34-.2.52h.69ZM49,3.79h-.62v.48H49a.22.22,0,0,0,.19-.06A.18.18,0,0,0,49.3,4a.23.23,0,0,0-.08-.18A.22.22,0,0,0,49,3.79Zm0,0h-.62v.48H49a.22.22,0,0,0,.19-.06A.18.18,0,0,0,49.3,4a.23.23,0,0,0-.08-.18A.22.22,0,0,0,49,3.79Zm4.65.32-.11-.34h0l-.14.34-.2.52h.69Zm0,0-.11-.34h0l-.14.34-.2.52h.69ZM49,3.79h-.62v.48H49a.22.22,0,0,0,.19-.06A.18.18,0,0,0,49.3,4a.23.23,0,0,0-.08-.18A.22.22,0,0,0,49,3.79Zm0,0h-.62v.48H49a.22.22,0,0,0,.19-.06A.18.18,0,0,0,49.3,4a.23.23,0,0,0-.08-.18A.22.22,0,0,0,49,3.79Zm4.65.32-.11-.34h0l-.14.34-.2.52h.69Zm0,0-.11-.34h0l-.14.34-.2.52h.69ZM49,3.79h-.62v.48H49a.22.22,0,0,0,.19-.06A.18.18,0,0,0,49.3,4a.23.23,0,0,0-.08-.18A.22.22,0,0,0,49,3.79Zm0,0h-.62v.48H49a.22.22,0,0,0,.19-.06A.18.18,0,0,0,49.3,4a.23.23,0,0,0-.08-.18A.22.22,0,0,0,49,3.79Zm4.65.32-.11-.34h0l-.14.34-.2.52h.69Zm0,0-.11-.34h0l-.14.34-.2.52h.69ZM49,3.79h-.62v.48H49a.22.22,0,0,0,.19-.06A.18.18,0,0,0,49.3,4a.23.23,0,0,0-.08-.18A.22.22,0,0,0,49,3.79Zm7.15-1v.64l-.42-.64H54.54v.81l-.39-.81H52.06a1.49,1.49,0,0,0-1,.32V2.83H44.2L44,3.51l-.23-.7H42.17v.82l-.36-.82H40.54l-.63,1.48V6h.89L41,5.53h.44L41.6,6h7.16V5.44l.45.57h1.88V5.72A1.5,1.5,0,0,0,52,6h1.12l.18-.48h.44L54,6h1.91V5.39l.39.62h1.32V2.83ZM41.9,5.52l-.18-.45h-1l-.19.46h-.59l1-2.21h.69l.95,2.2Zm3.44,0h-.52V3.74h0l-.1.33L44.2,5.52h-.47l-.5-1.45-.11-.33h0V5.52h-.51V3.32h.86l.43,1.27.07.24h0L44,4.59l.44-1.27h.86Zm2.18-1.73H46.28v.39h1.21v.46H46.28V5h1.24V5.5H45.76V3.32h1.76Zm1.79,1.73-.65-.78h-.25v.78h-.54V3.32h1.21a.66.66,0,0,1,.55.17.68.68,0,0,1,.23.52.69.69,0,0,1-.6.7l.73.81Zm1.32,0H50.1V3.32h.53Zm1.37,0h0a1,1,0,0,1-.76-.31A.94.94,0,0,1,51,4.43v0A1,1,0,0,1,52,3.32h.62v.47h-.58a.58.58,0,0,0-.43.18.52.52,0,0,0-.14.43v0a.54.54,0,0,0,.14.44.55.55,0,0,0,.43.18h.17Zm2.26,0-.19-.45H53l-.19.46h-.57l.94-2.21h.71l.94,2.2Zm2.8,0h-.62l-.82-1.23-.14-.24h0V5.53H55V3.32h.65l.78,1.17.15.25h0V3.3h.54ZM53.57,3.77h0l-.14.34-.2.52h.69l-.21-.52Zm-4.52,0h-.64v.48H49a.25.25,0,0,0,.19,0A.21.21,0,0,0,49.3,4a.21.21,0,0,0-.08-.17.26.26,0,0,0-.19,0Zm0,0h-.64v.48H49a.25.25,0,0,0,.19,0A.21.21,0,0,0,49.3,4a.21.21,0,0,0-.08-.17.26.26,0,0,0-.19,0Zm4.65.33-.13-.33h0l-.14.34-.2.52h.69Zm0,0-.13-.33h0l-.14.34-.2.52h.69ZM49,3.79h-.62v.48H49a.22.22,0,0,0,.19-.06A.18.18,0,0,0,49.3,4a.23.23,0,0,0-.08-.18A.22.22,0,0,0,49,3.79Zm0,0h-.62v.48H49a.22.22,0,0,0,.19-.06A.18.18,0,0,0,49.3,4a.23.23,0,0,0-.08-.18A.22.22,0,0,0,49,3.79Zm4.65.32-.11-.34h0l-.14.34-.2.52h.69Zm0,0-.11-.34h0l-.14.34-.2.52h.69ZM49,3.79h-.62v.48H49a.22.22,0,0,0,.19-.06A.18.18,0,0,0,49.3,4a.23.23,0,0,0-.08-.18A.22.22,0,0,0,49,3.79Zm0,0h-.62v.48H49a.22.22,0,0,0,.19-.06A.18.18,0,0,0,49.3,4a.23.23,0,0,0-.08-.18A.22.22,0,0,0,49,3.79Zm4.65.32-.11-.34h0l-.14.34-.2.52h.69Zm0,0-.11-.34h0l-.14.34-.2.52h.69ZM49,3.79h-.62v.48H49a.22.22,0,0,0,.19-.06A.18.18,0,0,0,49.3,4a.23.23,0,0,0-.08-.18A.22.22,0,0,0,49,3.79Zm0,0h-.62v.48H49a.22.22,0,0,0,.19-.06A.18.18,0,0,0,49.3,4a.23.23,0,0,0-.08-.18A.22.22,0,0,0,49,3.79Zm4.65.32-.11-.34h0l-.14.34-.2.52h.69Zm0,0-.11-.34h0l-.14.34-.2.52h.69ZM49,3.79h-.62v.48H49a.22.22,0,0,0,.19-.06A.18.18,0,0,0,49.3,4a.23.23,0,0,0-.08-.18A.22.22,0,0,0,49,3.79Zm0,0h-.62v.48H49a.22.22,0,0,0,.19-.06A.18.18,0,0,0,49.3,4a.23.23,0,0,0-.08-.18A.22.22,0,0,0,49,3.79Zm0,0h-.62v.48H49a.22.22,0,0,0,.19-.06A.18.18,0,0,0,49.3,4a.23.23,0,0,0-.08-.18A.22.22,0,0,0,49,3.79Zm0,0h-.62v.48H49a.22.22,0,0,0,.19-.06A.18.18,0,0,0,49.3,4a.23.23,0,0,0-.08-.18A.22.22,0,0,0,49,3.79Zm0,0h-.62v.48H49a.22.22,0,0,0,.19-.06A.18.18,0,0,0,49.3,4a.23.23,0,0,0-.08-.18A.22.22,0,0,0,49,3.79Z"/><path class="cls-8" d="M49.4,8h-.63v.53h.63a.27.27,0,1,0,0-.53Zm0,0h-.63v.53h.63a.27.27,0,1,0,0-.53Zm0,0h-.63v.53h.63a.27.27,0,1,0,0-.53Zm2.24,0H51v.48h.61a.22.22,0,0,0,.19-.06.18.18,0,0,0,.08-.18A.21.21,0,0,0,51.83,8a.25.25,0,0,0-.19,0Zm0,0H51v.48h.61a.22.22,0,0,0,.19-.06.18.18,0,0,0,.08-.18A.21.21,0,0,0,51.83,8a.25.25,0,0,0-.19,0ZM49.4,8h-.63v.53h.63a.27.27,0,1,0,0-.53Zm0,0h-.63v.53h.63a.27.27,0,1,0,0-.53Zm2.24,0H51v.48h.61a.22.22,0,0,0,.19-.06.18.18,0,0,0,.08-.18A.21.21,0,0,0,51.83,8a.25.25,0,0,0-.19,0Zm6.79,0h-1a.18.18,0,0,0-.2.08.18.18,0,0,0,0,.22.2.2,0,0,0,.2.09H58a.63.63,0,0,1,.64.36V7.49ZM51.64,8H51v.48h.61a.22.22,0,0,0,.19-.06.18.18,0,0,0,.08-.18A.21.21,0,0,0,51.83,8a.25.25,0,0,0-.19,0ZM49.4,8h-.63v.53h.63a.27.27,0,1,0,0-.53Zm8.1-.47h1.14V7H47.27l-.33.46L46.61,7H43.38v3.18H46.6l.34-.48.32.48h2V9.45h.22A2.33,2.33,0,0,0,50,9.37v.8h1.34V9.6l.45.57h6.09a1.25,1.25,0,0,0,.71-.2V9.23a.69.69,0,0,1-.71.45H56.8V9.21h1.13a.21.21,0,0,0,.21-.08.24.24,0,0,0,0-.23.21.21,0,0,0-.21-.08h-.5a.66.66,0,0,1-.5-.16.65.65,0,0,1-.19-.49A.71.71,0,0,1,57,7.65.67.67,0,0,1,57.5,7.48ZM45.65,8H44.41v.39h1.22V8.8H44.41v.39h1.24v.46H43.88V7.48h1.77Zm1.82,1.73L46.94,9l-.56.7h-.62l.86-1.09-.88-1.11h.66l.54.69.53-.69h.65l-.87,1.11.89,1.1Zm2-.73h-.67v.73h-.52V7.48h1.21a.71.71,0,0,1,.56.18.78.78,0,0,1,.23.55.72.72,0,0,1-.8.74Zm2.49.73-.65-.78H51v.78h-.52V7.48h1.2a.69.69,0,0,1,.64.27.71.71,0,0,1-.48,1.12l.74.81ZM54.48,8H53.25v.39h1.21V8.8H53.25v.39h1.24v.46H52.71V7.48h1.78Zm1.43,1.73H54.77V9.21h1.14a.21.21,0,0,0,.21-.08.24.24,0,0,0,0-.23.21.21,0,0,0-.21-.08H55.4a.63.63,0,0,1-.5-.16.65.65,0,0,1-.19-.49.7.7,0,0,1,.22-.51.68.68,0,0,1,.54-.18h1.14L56.4,8h-.95a.2.2,0,0,0-.2.09.18.18,0,0,0,0,.22.18.18,0,0,0,.2.08H56a.62.62,0,0,1,.49.16.59.59,0,0,1,.2.48.69.69,0,0,1-.74.7ZM51.64,8H51v.48h.61a.22.22,0,0,0,.19-.06.18.18,0,0,0,.08-.18A.21.21,0,0,0,51.83,8a.25.25,0,0,0-.19,0ZM49.4,8h-.63v.53h.63a.27.27,0,1,0,0-.53Zm0,0h-.63v.53h.63a.27.27,0,1,0,0-.53Zm2.24,0H51v.48h.61a.22.22,0,0,0,.19-.06.18.18,0,0,0,.08-.18A.21.21,0,0,0,51.83,8a.25.25,0,0,0-.19,0Zm0,0H51v.48h.61a.22.22,0,0,0,.19-.06.18.18,0,0,0,.08-.18A.21.21,0,0,0,51.83,8a.25.25,0,0,0-.19,0ZM49.4,8h-.63v.53h.63a.27.27,0,1,0,0-.53Zm0,0h-.63v.53h.63a.27.27,0,1,0,0-.53Zm2.24,0H51v.48h.61a.22.22,0,0,0,.19-.06.18.18,0,0,0,.08-.18A.21.21,0,0,0,51.83,8a.25.25,0,0,0-.19,0Zm0,0H51v.48h.61a.22.22,0,0,0,.19-.06.18.18,0,0,0,.08-.18A.21.21,0,0,0,51.83,8a.25.25,0,0,0-.19,0ZM49.4,8h-.63v.53h.63a.27.27,0,1,0,0-.53Z"/></g><g id="maestro-light-large"><rect class="cls-1" x="59.92" width="18.73" height="12.49" rx="1.56"/><g class="cls-3"><rect class="cls-4" x="61.73" y="1.25" width="15.11" height="9.99"/></g><rect class="cls-9" x="67.29" y="2.99" width="3.98" height="6.51"/><path class="cls-10" d="M67.72,6.24A4.16,4.16,0,0,1,69.28,3a4.14,4.14,0,1,0,0,6.51A4.16,4.16,0,0,1,67.72,6.24Z"/><path class="cls-11" d="M75.58,8.81V8.68h.06v0h-.13v0h0v.13Zm.27,0V8.65h0l0,.11-.05-.11h0v.16h0V8.69l0,.1h0l0-.1v.12Z"/><path class="cls-11" d="M76,6.24a4.14,4.14,0,0,1-6.7,3.26A4.14,4.14,0,0,0,70,3.69a3.87,3.87,0,0,0-.7-.7A4.14,4.14,0,0,1,76,6.24Z"/></g><g id="discover-light-large"><path class="cls-1" d="M98.66,1.56v9.37a1.56,1.56,0,0,1-1.56,1.56H81.49a1.39,1.39,0,0,1-.53-.1,1.55,1.55,0,0,1-1-1.46V1.56A1.56,1.56,0,0,1,81.49,0H97.1A1.56,1.56,0,0,1,98.66,1.56Z"/><path class="cls-12" d="M98.66,6.24v4.67a1.58,1.58,0,0,1-1.58,1.58H81.25a1.4,1.4,0,0,1-.54-.1c1.33-.19,2.61-.42,3.87-.69.33-.06.65-.14,1-.21,5.23-1.19,9.76-2.94,12.31-4.66C98.15,6.64,98.42,6.44,98.66,6.24Z"/><path class="cls-13" d="M82.2,4.15h-.71V6.63h.71a1.34,1.34,0,0,0,.9-.28,1.26,1.26,0,0,0-.9-2.21ZM82.78,6a.88.88,0,0,1-.68.21H82V4.57h.12a.93.93,0,0,1,.68.21.85.85,0,0,1,.27.62.87.87,0,0,1-.27.63Z"/><rect class="cls-13" x="83.77" y="4.15" width="0.49" height="2.51"/><path class="cls-13" d="M85.46,5.11c-.3-.11-.39-.18-.39-.32a.33.33,0,0,1,.36-.27.5.5,0,0,1,.39.2l.25-.33a1,1,0,0,0-.73-.28.67.67,0,0,0-.54.19.69.69,0,0,0-.24.52c0,.35.16.53.61.69l.34.14a.32.32,0,0,1,.15.26.36.36,0,0,1-.12.27.37.37,0,0,1-.27.09.57.57,0,0,1-.53-.34l-.32.31a1,1,0,0,0,.89.47.76.76,0,0,0,.61-.22.75.75,0,0,0,.25-.6C86.17,5.49,86,5.31,85.46,5.11Z"/><path class="cls-13" d="M86.33,5.4a1.29,1.29,0,0,0,.39.93,1.24,1.24,0,0,0,.93.38,1.32,1.32,0,0,0,.62-.15V6a.8.8,0,0,1-.59.27A.79.79,0,0,1,87.07,6a.81.81,0,0,1-.24-.61.86.86,0,0,1,.23-.6.8.8,0,0,1,.59-.26.82.82,0,0,1,.62.28V4.25a1.17,1.17,0,0,0-.6-.16,1.31,1.31,0,0,0-.94.38,1.26,1.26,0,0,0-.4.93Z"/><polygon class="cls-13" points="92.14 5.83 91.47 4.15 90.94 4.15 92 6.72 92.26 6.72 93.35 4.15 92.82 4.15 92.14 5.83"/><polygon class="cls-13" points="93.57 6.65 94.95 6.65 94.95 6.23 94.05 6.23 94.05 5.55 94.92 5.55 94.92 5.13 94.05 5.13 94.05 4.57 94.95 4.57 94.95 4.15 93.57 4.15 93.57 6.65"/><path class="cls-13" d="M96.32,5.6a.67.67,0,0,0,.57-.71c0-.47-.32-.74-.89-.74h-.72V6.63h.49v-1h.06l.67,1h.6Zm-.39-.3h-.16V4.54h.16c.29,0,.46.13.46.39S96.22,5.3,95.93,5.3Z"/><path class="cls-12" d="M91.08,5.4a1.33,1.33,0,1,1-1.33-1.33A1.32,1.32,0,0,1,91.08,5.4Z"/><path class="cls-13" d="M97.1,4.25a0,0,0,0,0,0,0s0-.07-.08-.07H97v.23H97v-.1l.07.1h.06Zm0,0h0v0h0s0,0,0,0,0,0,0,0Z"/><path class="cls-13" d="M97.07,4a.2.2,0,0,0-.18.2.18.18,0,0,0,.19.19.19.19,0,0,0,.2-.19.17.17,0,0,0-.06-.14A.2.2,0,0,0,97.07,4Zm.11.32a.15.15,0,0,1-.11,0A.16.16,0,0,1,97,4.35a.14.14,0,0,1,0-.11.15.15,0,0,1,.14-.15.15.15,0,0,1,.15.15.19.19,0,0,1,0,.12Z"/></g></svg>