<?xml version="1.0" standalone="no"?>
<!DOCTYPE svg PUBLIC "-//W3C//DTD SVG 20010904//EN"
 "http://www.w3.org/TR/2001/REC-SVG-20010904/DTD/svg10.dtd">
<svg version="1.0" xmlns="http://www.w3.org/2000/svg"
 width="922.000000pt" height="922.000000pt" viewBox="0 0 922.000000 922.000000"
 preserveAspectRatio="xMidYMid meet">
<metadata>
Created by potrace 1.14, written by Peter Selinger 2001-2017
</metadata>
<g transform="translate(0.000000,922.000000) scale(0.100000,-0.100000)"
fill="#000000" stroke="none">
<path d="M7385 7002 c-73 -6 -264 -72 -273 -94 -2 -4 -8 -8 -14 -8 -26 0 -157
-119 -215 -195 -36 -48 -74 -122 -98 -190 -17 -51 -18 -56 -33 -135 -13 -76
-2 -270 18 -295 5 -5 9 -14 9 -20 10 -99 132 -277 255 -370 l38 -29 -113 -38
c-63 -21 -128 -45 -146 -53 -17 -8 -35 -15 -40 -15 -5 0 -33 -11 -61 -25 -29
-14 -54 -25 -57 -25 -10 0 -247 -120 -313 -158 -95 -55 -92 -53 -174 -104
l-76 -48 -43 16 c-63 22 -212 53 -224 46 -9 -5 10 23 25 38 14 14 60 91 78
131 35 80 46 140 45 254 -1 153 -56 280 -173 395 -63 63 -180 134 -238 145
-13 2 -33 7 -45 11 -27 9 -208 13 -222 5 -5 -3 -19 -7 -30 -9 -11 -2 -25 -5
-31 -6 -26 -5 -144 -60 -144 -68 0 -4 -6 -8 -13 -8 -19 0 -128 -107 -165 -161
-133 -198 -127 -475 17 -669 29 -39 122 -130 134 -130 4 0 7 -4 7 -8 0 -4 -21
-14 -47 -20 -143 -39 -436 -173 -600 -275 -21 -13 -46 -26 -55 -30 -10 -3 -18
-11 -18 -17 0 -5 -5 -10 -10 -10 -11 0 -77 -45 -187 -128 l-73 -54 -67 27
c-38 15 -110 42 -161 60 -51 18 -95 35 -97 37 -3 2 21 21 53 41 53 34 172 138
172 151 0 3 10 17 23 32 43 50 110 190 122 256 3 13 8 43 13 68 20 106 -2 278
-49 388 -10 23 -18 43 -17 45 1 1 -17 31 -41 67 -41 60 -121 146 -181 195 -48
39 -185 103 -260 121 -111 27 -323 23 -375 -7 -5 -4 -22 -9 -38 -13 -86 -20
-220 -107 -299 -192 -129 -140 -200 -324 -199 -519 0 -28 13 -124 21 -152 4
-18 7 -33 5 -33 -1 0 -15 25 -31 56 -32 63 -118 157 -184 201 -230 154 -532
122 -730 -77 -113 -112 -173 -251 -173 -400 1 -64 9 -135 18 -150 2 -4 8 -26
14 -49 l9 -41 -42 -21 c-49 -23 -169 -98 -176 -109 -7 -11 -42 -18 -120 -25
-109 -9 -152 -15 -220 -31 -90 -21 -204 -57 -211 -67 -3 -5 -8 -8 -10 -6 -7 4
-79 -25 -79 -31 0 -4 -6 -7 -12 -7 -13 0 -164 -88 -184 -107 -6 -6 -26 -22
-44 -36 -63 -48 -161 -154 -216 -235 -102 -152 -159 -397 -132 -575 22 -144
104 -336 175 -408 7 -7 13 -17 13 -21 0 -10 151 -162 184 -185 15 -11 39 -30
54 -43 15 -13 34 -23 42 -23 12 1 12 3 -2 14 -10 7 -18 18 -18 25 0 6 -3 11
-7 11 -8 0 -16 13 -65 99 -72 126 -106 298 -84 421 32 174 171 338 389 460
l58 32 -7 -33 c-12 -64 -11 -232 3 -315 36 -226 147 -434 333 -626 53 -55 94
-100 93 -102 -2 -1 -29 3 -60 10 -155 32 -297 105 -404 207 -70 68 -129 138
-129 156 0 6 -4 11 -9 11 -4 0 -20 27 -35 60 -28 63 -39 75 -32 38 3 -13 5
-23 6 -23 1 0 3 -9 5 -19 2 -11 7 -31 11 -45 4 -14 8 -28 8 -31 12 -60 123
-289 179 -368 178 -254 424 -406 727 -449 65 -9 293 -8 375 2 103 12 104 12
180 -39 128 -86 321 -164 450 -183 17 -2 36 -6 44 -9 74 -25 429 -24 576 1
146 26 212 40 285 61 47 13 94 27 105 29 11 3 29 9 40 14 11 5 63 26 115 47
138 54 293 135 465 242 89 56 318 215 343 239 7 7 26 20 42 30 17 9 30 21 30
25 0 8 69 5 150 -8 57 -9 289 -9 355 0 87 11 170 25 253 42 36 7 170 53 235
80 l57 24 48 -19 c189 -77 493 -168 687 -206 206 -41 295 -49 510 -49 191 0
305 10 460 40 11 2 33 7 49 10 16 2 33 7 38 10 5 3 20 7 34 10 50 9 203 64
288 103 88 41 230 128 288 178 150 129 277 296 347 458 12 28 26 59 31 70 12
25 49 143 55 173 2 12 6 25 8 30 3 4 8 25 11 47 3 22 11 63 16 90 21 109 28
457 8 437 -4 -4 -8 -24 -10 -45 -1 -21 -6 -41 -10 -43 -5 -3 -6 -9 -3 -14 12
-19 -94 -298 -117 -308 -5 -2 -8 -8 -8 -14 0 -6 -21 -40 -47 -77 -122 -171
-317 -313 -528 -386 -27 -9 -54 -18 -60 -19 -5 -1 -14 -4 -20 -8 -5 -3 -27 -9
-49 -12 -21 -4 -41 -8 -45 -10 -4 -3 -27 -7 -51 -10 -25 -3 -61 -8 -81 -11
-20 -3 -53 -8 -75 -10 -46 -5 -343 -6 -394 -1 -118 12 -256 32 -385 55 -83 15
-213 50 -347 93 -141 44 -138 40 -113 123 20 66 33 135 40 225 6 62 7 241 2
246 -3 3 -10 -19 -17 -48 -16 -71 -53 -182 -63 -189 -5 -3 -8 -9 -8 -13 2 -9
-49 -107 -63 -122 -6 -7 -24 -31 -40 -53 -16 -23 -37 -43 -46 -46 -9 -3 -48 9
-86 26 -155 70 -234 109 -234 117 0 5 43 49 96 98 53 49 113 105 134 124 42
39 93 84 170 150 29 25 60 52 69 60 29 27 199 160 204 160 8 0 47 -70 47 -86
0 -8 5 -14 12 -14 6 0 9 -3 5 -6 -3 -3 1 -25 10 -47 16 -44 24 -245 11 -302
-13 -60 -16 -71 -28 -115 -7 -25 -19 -58 -27 -75 l-15 -30 27 30 c99 110 195
310 235 490 12 53 16 278 5 295 -22 36 -14 56 38 90 28 19 54 37 57 40 3 3 21
14 40 24 19 11 37 22 40 25 20 24 347 182 455 221 33 12 67 24 75 27 8 3 21 7
29 9 8 1 35 9 60 17 47 15 181 42 261 52 58 7 267 7 300 -1 14 -3 40 -7 58 -9
19 -2 70 -14 114 -25 237 -61 427 -178 527 -324 40 -58 88 -162 96 -208 3 -18
10 -48 15 -66 9 -35 6 -259 -4 -302 -3 -14 -8 -37 -11 -52 -3 -14 -13 -53 -24
-87 -10 -33 -16 -63 -13 -66 3 -3 1 -5 -5 -5 -6 0 -13 -12 -16 -27 l-5 -28 24
30 c36 44 36 45 81 111 112 164 199 384 221 552 10 84 6 269 -7 334 -7 32 -12
60 -12 63 0 2 -7 24 -15 47 -9 24 -17 48 -18 53 -2 9 -18 46 -49 118 -6 15
-15 27 -18 27 -4 0 -9 10 -13 23 -3 13 -17 36 -31 53 -14 16 -25 32 -25 37 0
10 -45 61 -125 142 -146 146 -360 263 -595 324 -51 14 -65 17 -133 27 l-48 7
26 31 c119 146 176 312 169 493 -4 127 -21 198 -73 303 -102 206 -290 348
-521 396 -36 7 -172 11 -225 6z m-4568 -2000 c15 -21 32 -40 37 -44 6 -4 -14
-8 -45 -8 l-56 0 -6 78 c-3 42 -9 88 -13 102 -3 14 8 -1 24 -33 17 -33 43 -75
59 -95z m2583 -377 c0 -2 -56 -62 -125 -131 -70 -70 -176 -181 -238 -247 -233
-249 -317 -336 -496 -514 -102 -100 -193 -185 -202 -188 -10 -4 -32 1 -48 9
-17 9 -36 16 -44 16 -8 0 -20 7 -27 15 -6 8 -15 14 -18 13 -15 -3 -192 81
-192 91 0 4 13 17 30 29 25 19 33 20 55 10 26 -12 33 -6 270 234 179 181 269
264 342 315 207 146 409 255 593 319 105 37 100 36 100 29z m-2170 -571 c30
-8 62 -17 70 -19 8 -2 16 -4 18 -5 1 -2 7 -4 12 -5 6 -1 12 -4 15 -5 3 -1 8
-3 13 -4 56 -13 56 -15 0 -74 -201 -213 -548 -549 -595 -576 -8 -4 -23 -16
-32 -25 -49 -47 -248 -187 -331 -232 -25 -13 -47 -27 -50 -30 -11 -14 -200
-103 -317 -150 -84 -34 -131 -48 -146 -43 -38 12 -212 196 -269 284 -50 78
-70 114 -72 132 -1 4 -6 12 -12 18 -27 27 60 -257 111 -363 14 -28 25 -55 25
-60 0 -5 9 -22 21 -38 14 -21 17 -29 7 -30 -7 0 -22 -2 -33 -5 -91 -18 -213
-20 -230 -3 -15 15 -93 165 -111 214 -11 27 -24 74 -41 145 -3 14 -7 72 -7
130 -2 79 3 121 17 170 20 68 71 171 113 230 36 51 164 170 234 219 l62 42
116 -25 c235 -49 505 -138 742 -243 25 -11 74 -33 109 -49 l64 -28 216 222
c119 122 218 221 221 222 3 0 30 -7 60 -16z m472 -905 c74 -32 96 -49 64 -49
-8 0 -16 -4 -18 -8 -11 -26 -480 -262 -521 -262 -5 0 -23 -6 -40 -14 -73 -33
-257 -87 -257 -76 0 4 28 27 63 51 34 24 64 47 65 51 2 4 8 8 13 8 5 0 19 9
31 19 13 10 75 60 138 111 63 50 148 122 189 158 108 98 99 93 151 67 25 -12
80 -38 122 -56z"/>
</g>
</svg>
