<?xml version="1.0" encoding="utf-8"?>
<!-- Generator: Adobe Illustrator 26.3.1, SVG Export Plug-In . SVG Version: 6.00 Build 0)  -->
<svg version="1.1" id="Layer_1" xmlns="http://www.w3.org/2000/svg" xmlns:xlink="http://www.w3.org/1999/xlink" x="0px" y="0px"
	 viewBox="0 0 20 25.7" style="enable-background:new 0 0 20 25.7;" xml:space="preserve">
<style type="text/css">
	.st0{fill:#6FA7E0;}
	.st1{fill:none;}
	.st2{fill:#FFFFFF;}
</style>
<path class="st0" d="M20,10c0-5.5-4.5-10-10-10S0,4.5,0,10c0,2.3,0.8,4.5,2.2,6.3l0,0l7.4,9.3c0.2,0.2,0.5,0.2,0.7,0.1
	c0,0,0.1,0,0.1-0.1l7.4-9.3l0,0C19.2,14.5,20,12.3,20,10z"/>
<g>
	<path class="st1" d="M6.2,17c1.1,0.6,2.4,1,3.8,1s2.7-0.4,3.8-1H6.2z"/>
	<path class="st1" d="M4,12.4c0.9-0.7,2.1-1.2,3.2-1.6c0.9-0.2,1.8-0.4,2.7-0.4c1,0,1.9,0.2,2.7,0.4c1.2,0.3,2.3,0.8,3.2,1.6
		c0.4,0.3,0.7,0.8,0.7,1.3v0.8c0.9-1.3,1.4-2.8,1.4-4.5c0-4.4-3.6-8-8-8s-8,3.6-8,8c0,1.7,0.5,3.2,1.4,4.5v-0.8
		C3.3,13.2,3.6,12.7,4,12.4z M10,2.9c1.8,0,3.3,1.5,3.3,3.3c0,1.8-1.5,3.3-3.3,3.3S6.7,8.1,6.7,6.2C6.7,4.4,8.2,2.9,10,2.9z"/>
	<circle class="st2" cx="10" cy="6.2" r="3.3"/>
	<path class="st2" d="M16.7,14.5v-0.8c0-0.5-0.2-1-0.7-1.3c-0.9-0.7-2.1-1.2-3.2-1.6c-0.8-0.2-1.7-0.4-2.7-0.4
		c-0.9,0-1.8,0.2-2.7,0.4c-1.2,0.3-2.3,0.9-3.2,1.6c-0.4,0.3-0.7,0.8-0.7,1.3v0.8C4.1,15.5,5,16.4,6.2,17h7.6
		C15,16.4,15.9,15.5,16.7,14.5z"/>
</g>
</svg>
