<?xml version="1.0" encoding="utf-8"?>
<!-- Generator: Adobe Illustrator 26.3.1, SVG Export Plug-In . SVG Version: 6.00 Build 0)  -->
<svg version="1.1" id="Layer_1" xmlns="http://www.w3.org/2000/svg" xmlns:xlink="http://www.w3.org/1999/xlink" x="0px" y="0px"
	 viewBox="0 0 20 25.7" style="enable-background:new 0 0 20 25.7;" xml:space="preserve">
<style type="text/css">
	.st0{fill:#FFFFFF;}
</style>
<path d="M20,10c0-5.5-4.5-10-10-10S0,4.5,0,10c0,2.3,0.8,4.5,2.2,6.3l0,0l7.4,9.3c0.2,0.2,0.5,0.2,0.7,0.1c0,0,0.1,0,0.1-0.1
	l7.4-9.3l0,0C19.2,14.5,20,12.3,20,10z"/>
<g>
	<path class="st0" d="M7.2,6.2l-1.5,4.9v2.8H3.9v-2.8L2.5,6.2h1.8c0.3,1.5,0.5,2.5,0.5,3c0.1-0.8,0.3-1.8,0.6-3H7.2z"/>
	<path class="st0" d="M12.2,10.7c0,0.8,0,1.3-0.1,1.6c0,0.3-0.2,0.6-0.3,0.9c-0.2,0.3-0.5,0.5-0.8,0.6c-0.3,0.1-0.7,0.2-1.1,0.2
		c-0.4,0-0.8-0.1-1.1-0.2s-0.6-0.3-0.8-0.6s-0.3-0.6-0.4-0.9c0-0.3-0.1-0.9-0.1-1.7V9.4c0-0.8,0-1.3,0.1-1.6c0-0.3,0.2-0.6,0.3-0.9
		c0.2-0.3,0.5-0.5,0.8-0.6C9,6.1,9.4,6,9.9,6c0.4,0,0.8,0.1,1.1,0.2s0.6,0.3,0.8,0.6c0.2,0.3,0.3,0.6,0.4,0.9s0.1,0.9,0.1,1.7V10.7z
		 M10.2,8.2c0-0.4,0-0.6-0.1-0.7c0-0.1-0.1-0.2-0.2-0.2c-0.1,0-0.2,0-0.2,0.1S9.5,7.8,9.5,8.2v3.6c0,0.4,0,0.7,0.1,0.8
		s0.1,0.2,0.3,0.2c0.1,0,0.2-0.1,0.3-0.2c0-0.1,0.1-0.4,0.1-0.9V8.2z"/>
	<path class="st0" d="M17.5,6.2v5.2c0,0.6,0,1-0.1,1.2c0,0.2-0.2,0.5-0.3,0.7s-0.4,0.4-0.7,0.6c-0.3,0.1-0.7,0.2-1.1,0.2
		c-0.5,0-0.9-0.1-1.2-0.2c-0.4-0.2-0.6-0.4-0.8-0.6c-0.2-0.2-0.3-0.5-0.3-0.8c0-0.3,0-0.8,0-1.7V6.2h2V12c0,0.3,0,0.6,0.1,0.6
		c0,0.1,0.1,0.1,0.2,0.1c0.1,0,0.2-0.1,0.2-0.2c0-0.1,0.1-0.3,0.1-0.7V6.2H17.5z"/>
</g>
</svg>
