<?xml version="1.0" encoding="UTF-8"?><svg id="a" xmlns="http://www.w3.org/2000/svg" viewBox="0 0 60 60"><defs><style>.b{fill:#fff;}</style></defs><path class="b" d="M12.13,44.78c-1.66-.18-2.86-1.67-2.68-3.33,.18-1.66,1.67-2.86,3.33-2.68,1.41,.15,2.52,1.27,2.68,2.68,.16,1.67-1.06,3.16-2.73,3.33-.19,.02-.39,.02-.58,0h0Zm0-8.13c-2.83,.19-4.97,2.64-4.79,5.47,.19,2.83,2.64,4.97,5.47,4.79,2.57-.17,4.62-2.22,4.79-4.79,.18-2.84-1.98-5.29-4.82-5.47-.22-.01-.43-.01-.65,0"/><path class="b" d="M47.03,21.83l4.41,2.35-5.21,4.09c-.74-.15-1.46-.41-2.13-.76l4.02-3.16-3.47-1.84,3.11-5.28-5.59,2.83-1.04-5.98-2.92,5.51-3.35-3.96-1.22,5.05c-.61-.3-1.22-.56-1.83-.81l1.71-8.47,4.36,5.16,4.08-7.69,1.49,8.61,8.73-4.43-5.17,8.78Z"/><path class="b" d="M45.02,44.78c-1.66-.18-2.86-1.67-2.68-3.33,.18-1.66,1.67-2.86,3.33-2.68,1.41,.15,2.52,1.27,2.68,2.68,.18,1.66-1.02,3.15-2.68,3.33-.21,.02-.42,.02-.64,0h0Zm0-8.13c-2.83,.19-4.97,2.64-4.79,5.47,.19,2.83,2.64,4.97,5.47,4.79,2.57-.17,4.62-2.22,4.79-4.79,.17-2.85-1.99-5.29-4.84-5.47-.21-.01-.42-.01-.63,0"/><path class="b" d="M12.13,44.78c-1.66-.18-2.86-1.67-2.68-3.33,.18-1.66,1.67-2.86,3.33-2.68,1.41,.15,2.52,1.27,2.68,2.68,.18,1.66-1.02,3.15-2.68,3.33-.21,.02-.42,.02-.64,0h0Zm0-8.13c-2.83,.19-4.97,2.64-4.79,5.47,.19,2.83,2.64,4.97,5.47,4.79,2.57-.17,4.62-2.22,4.79-4.79,.17-2.85-1.99-5.29-4.84-5.47-.21-.01-.42-.01-.63,0"/><path class="b" d="M4.93,31.18c-.54,0-.98-.44-.98-.98h0v-1.89c0-.37,.25-.7,.61-.81,1.34-.38,2.88-1.08,4.67-1.88,3.26-1.47,7.21-3.26,11.33-3.75,.54-.06,1.04,.33,1.1,.88,0,.03,0,.07,0,.1v7.34c0,.55-.44,.99-.99,.99H4.93Zm1.79,3.02h-1.89c-.48,0-.88-.38-.89-.86-.01-.48,.37-.87,.85-.88h1.89c.49-.01,.89,.37,.91,.86,0,.48-.38,.88-.86,.89h-.01Zm18.39-1.75h1.86c.49-.02,.9,.37,.91,.86,.01,.48-.37,.88-.85,.89h-1.89c-.49,.01-.9-.37-.91-.86,0-.48,.38-.88,.86-.88h.01Zm34.72,6.68l-.94-3.96c-.56-2.34-2.53-4.08-4.93-4.33l-7.43-1.09c-1.81-.27-3.52-1.02-4.93-2.2-.42-.34-.86-.69-1.31-1.05l.45,1.25,.25,.69-.59,.13-1.22,.28c.25,.2,.49,.38,.74,.58,.42,.34,.48,.96,.14,1.38-.19,.23-.47,.36-.76,.36h-14.09c-.54,0-.99-.44-.99-.98h0v-7.23c0-.46,.33-.85,.78-.94l.3,2.8,2.29-.29,.66,2.78,.3-3.58-1.7-.4,.16-.95c3.76,1,7.61,2.98,11.35,5.82l.98-.44-2.03-3.08-.34-.51c-3.16-2.02-6.93-3.81-11.13-4.62-8.91-1.7-17.59,4.31-21.98,5.55-1.44,.41-2.43,1.72-2.44,3.21v5.86c-.86,.32-1.43,1.14-1.43,2.06v3.41c0,1.18,.95,2.13,2.13,2.13h3.77v-.43c.25-3.62,3.38-6.35,7-6.11,3.44,.23,6.11,3.09,6.12,6.53h9.44l.87-1.08-2.13-1.61,3.26-3.38-2.04,3.16,2.99,1.29-.66,1.62h8.04v-.43c.24-3.62,3.36-6.36,6.98-6.13,1.59,.1,3.09,.78,4.22,1.91,1.22,1.24,1.91,2.9,1.92,4.64h5.84c1.19,0,2.15-.95,2.16-2.14,0-.17-.02-.34-.06-.5"/></svg>