<?xml version="1.0" encoding="UTF-8"?><svg id="a" xmlns="http://www.w3.org/2000/svg" viewBox="0 0 60 60"><defs><style>.b{fill:#fff;}.c{isolation:isolate;}</style></defs><g class="c"><g><path class="b" d="M20.45,35c.16,.19,.44,.2,.62,.03,.16-.16,.18-.42,.03-.59l-3.5-4c-.12-.14-.33-.18-.49-.08-.21,.12-.26,.4-.1,.59l3.44,4.05Z"/><path class="b" d="M16.27,31.31c-.21,.12-.26,.4-.1,.59l3.44,4.05c.16,.19,.44,.2,.62,.03,.16-.16,.18-.42,.03-.59l-3.5-4c-.12-.14-.33-.17-.49-.08"/><path class="b" d="M16.51,31.1c.14-.04,.23-.17,.21-.32l-.35-2.42c-.02-.13-.13-.24-.26-.24-.18-.01-.33,.15-.31,.33l.3,2.11-2.16-.05c-.13,0-.25,.09-.29,.22-.04,.18,.09,.35,.27,.35l2.45,.06s.09-.01,.13-.03"/><path class="b" d="M38.01,53.72c-.05,.34,.22,.65,.56,.64l7.57-.17c.35,0,.62-.31,.59-.65-.03-.32-.3-.57-.62-.56l-7.57,.27c-.27,0-.49,.21-.53,.47"/><path class="b" d="M47.04,55.31c-.03-.32-.3-.57-.62-.56l-7.57,.27c-.27,0-.49,.21-.53,.47-.05,.34,.22,.65,.56,.64l7.57-.17c.35,0,.62-.31,.59-.65"/><path class="b" d="M38.13,54.52l-2.99-1.79c-.16-.1-.37-.07-.51,.07-.18,.19-.14,.5,.09,.63l2.6,1.56-2,2.35c-.13,.15-.13,.36-.01,.51,.16,.21,.47,.22,.64,.02l2.26-2.66c.05-.05,.07-.12,.09-.18,.08-.19,.02-.41-.16-.52"/><path class="b" d="M24.81,3.19l1.15,.69-.89,1.05c-.15,.18-.16,.44-.02,.63,.09,.12,.24,.2,.39,.2h.01c.15,0,.29-.06,.38-.18l.87-1.02c.13,.25,.38,.42,.68,.41l10.21-.23c.47-.01,.83-.41,.79-.88-.01-.18-.08-.33-.19-.46,.13-.16,.21-.37,.19-.59-.04-.43-.41-.76-.84-.75l-10.21,.37c-.36,.01-.66,.28-.71,.64,0,.01,0,.03,0,.04l-1.3-.78c-.21-.12-.46-.09-.63,.09-.11,.11-.15,.26-.13,.42,.02,.15,.11,.29,.24,.37"/><path class="b" d="M16.52,32.64l-1.15,1.29c-.5,.56-.54,1.4-.09,2.01,.49,.65,1.38,.83,2.08,.42,.32-.18,.68-.41,1.09-.68,.14-.09,.28-.18,.41-.28l-2.35-2.77Z"/><path class="b" d="M25.91,28.33c1.63-2.41,3.85-5.81,4.59-7.5l1.03-2.01c.42-.81,.1-1.81-.71-2.23-.76-.4-1.69-.15-2.16,.57-1.77,2.73-5.99,9.07-8.14,11.25-.77,.78-1.54,1.57-2.29,2.37l2.71,3.07c1.9-1.6,3.58-3.46,4.98-5.52"/><path class="b" d="M21.32,26.78c2.26-2.77,5.5-7.65,6.95-9.88,.6-.93,1.8-1.24,2.78-.73,1.04,.54,1.45,1.83,.91,2.87l-1.02,1.99c-.75,1.72-2.92,5.06-4.62,7.57-1.34,1.97-2.89,3.73-4.65,5.26,.27,1.45,.71,2.71,1.42,3.34,0,0,.19,.37,1.16,.9,1.09,.59,2.32,.89,3.56,.89h10.5c.47,0,.86,.38,.86,.86v13l6.47-.19v-14.81c0-.72-.16-1.43-.46-2.08-.81-1.71-2.53-2.8-4.42-2.8h-7.59c-.6,0-1.1-.43-1.2-1.02l-.68-4.1c-.34-2.07-.14-4.19,.57-6.15,0-.02,.02-.05,.03-.07,.64-1.76,.91-3.63,.75-5.5-.04-.44-.1-.89-.19-1.35,0,0,0-.03-.01-.09-.5-3.02-3.75-4.75-6.53-3.45-.2,.09-.4,.2-.6,.32,0,0-2.17,1.08-3.03,5.92,0,0-1.15,5.57-.96,9.11,0,0,0,.06-.01,.18"/><path class="b" d="M39.16,56.77c0,1.79,1.45,3.23,3.23,3.23s3.23-1.45,3.23-3.23v-.49l-6.47,.24v.25Z"/><path class="b" d="M32.58,0c-1.76,0-3.34,.77-4.42,2l8.65-.2c-1.07-1.11-2.57-1.8-4.23-1.8"/><path class="b" d="M26.75,5.22c-.02,.21-.04,.43-.04,.65,0,3.24,2.63,5.87,5.87,5.87s5.87-2.63,5.87-5.87c0-.32-.03-.63-.07-.94l-11.63,.29Z"/><path class="b" d="M21.43,43.62h.47v13.27h-.47v-13.27Zm12.49,14.24v-14.05c0-.63-.19-1.21-.51-1.7h.12c.61,0,1.11-.49,1.11-1.11s-.49-1.11-1.11-1.11h-13.69c-.61,0-1.11,.49-1.11,1.11s.49,1.11,1.11,1.11h.12c-.32,.49-.51,1.07-.51,1.7v14.05c-.42,.16-.72,.56-.72,1.03,0,.61,.49,1.11,1.11,1.11h13.69c.61,0,1.11-.49,1.11-1.11,0-.47-.3-.87-.72-1.03"/></g></g></svg>