<?xml version="1.0" encoding="UTF-8"?><svg id="a" xmlns="http://www.w3.org/2000/svg" viewBox="0 0 60.06 35.42"><defs><style>.b{fill:#e8b873;}.c{fill:none;stroke:#e8b873;stroke-linecap:round;stroke-linejoin:round;stroke-width:1.5px;}</style></defs><path class="c" d="M34.1,11.29c1.6,.25,3.41,2.36,3.41,4.91s-1.89,4.75-3.51,4.93"/><polygon class="c" points="34.01 31.27 32.63 31.27 31.26 31.27 31.24 1.24 32.63 1.24 33.99 1.24 34.01 25.94 34.01 31.27"/><polygon class="c" points="13.68 9.98 13.69 22.56 31.26 31.27 31.24 1.24 13.68 9.98"/><path class="c" d="M5.86,22.92c-.11,3.17,.33,6.34,1.3,9.44l5.83-2.41c-.69-2.38-.97-4.8-.84-7.21"/><path class="c" d="M7.16,32.36c.21,.68,.46,1.37,.72,2.05,1.93-.8,3.87-1.6,5.8-2.4-.27-.68-.5-1.37-.7-2.06l-5.83,2.41Z"/><path class="c" d="M3.28,18.34c-.14,.05-.3,.08-.46,.08-.77,0-1.4-.63-1.4-1.4v-1.49c0-.77,.63-1.4,1.4-1.4,.19,0,.37,.04,.54,.11"/><rect class="c" x="3.36" y="9.98" width="10.33" height="12.58"/><line class="c" x1="5.77" y1="12.92" x2="10.41" y2="12.92"/><line class="c" x1="5.77" y1="15.15" x2="10.41" y2="15.15"/><line class="c" x1="5.77" y1="17.37" x2="10.41" y2="17.37"/><line class="c" x1="5.77" y1="19.6" x2="10.41" y2="19.6"/><rect class="b" x="37.02" y="16.12" width="20.48" height=".51"/><path class="b" d="M38.6,16.48l.46-3.43c.02-.18,.2-.31,.38-.27,.15,.02,.26,.13,.27,.26l1.3,4.98,1.3-3.94c.05-.16,.26-.27,.42-.2,.11,.02,.17,.09,.22,.18l1.47,3.17,1.21-3.54c.07-.16,.26-.27,.44-.2,.13,.04,.2,.15,.22,.26l.92,3.7,1.19-6.43c.04-.18,.22-.31,.4-.27,.15,.02,.26,.15,.27,.27l1.19,6.83,1.54-9.27c.04-.18,.22-.31,.4-.27,.15,.02,.26,.15,.27,.29l1.25,10.85,1.59-5.35c.05-.18,.24-.27,.42-.24,.13,.04,.2,.13,.24,.24l.82,3.04,.68-2.18c.05-.18,.24-.27,.42-.22,.11,.04,.2,.13,.24,.24l.38,1.28,.07-.2c.05-.18,.26-.27,.42-.22,.18,.05,.29,.24,.22,.42l-.38,1.23c-.04,.11-.11,.2-.24,.24-.16,.05-.37-.05-.42-.24l-.4-1.28-.68,2.24c-.04,.11-.13,.2-.26,.24-.18,.05-.37-.05-.42-.24l-.81-3.01-1.74,5.79c-.04,.13-.15,.22-.29,.24-.18,.02-.35-.11-.37-.29l-1.15-10.08-1.47,8.83c-.02,.15-.13,.27-.27,.29-.2,.04-.37-.09-.4-.27l-1.21-6.94-1.14,6.14c-.04,.13-.13,.24-.26,.27-.18,.04-.37-.07-.42-.26l-1.01-4.14-1.12,3.24c-.02,.09-.09,.16-.18,.2-.16,.07-.37,0-.44-.16l-1.48-3.17-1.39,4.18c-.02,.11-.11,.2-.24,.24-.18,.05-.37-.05-.42-.24l-1.17-4.53-.32,1.71-.2,.07h-.27l-.07-.07Z"/></svg>