<?xml version="1.0" encoding="UTF-8"?><svg id="a" xmlns="http://www.w3.org/2000/svg" viewBox="0 0 60 60"><defs><style>.b{fill:#fff;}</style></defs><path class="b" d="M5.61,31.26l-1.22-5.79,2.38-1.86-1.16,7.65Zm28.83-11.94c-.83-.04-2.66-.13-4.53-.21v-.97c0-.27-.22-.48-.48-.48h-1.02c-.27,0-.48,.22-.48,.48v.88h-.02s-.19,0-.33,.02c-1.02,.16-1.67,1.19-1.38,2.19l-7.68,2.76-4.65-4.51,3.43,1.96,.09-.58c.26-1.76-.85-3.38-2.49-3.63l-3.89-.66c-.63-.11-1.43-.12-2.19,.43L.99,23.12c-.59,.46-.87,1.22-.71,1.96l2.15,10.21c.2,.93,1.02,1.57,1.93,1.57,.7,0,1.37-.37,1.73-1.03l1.12,9.04-3.12,10.19c-.4,1.32,.34,2.72,1.66,3.13,1.32,.4,2.72-.34,3.13-1.66l3.27-10.7c.1-.34,.13-.69,.09-1.04l-1.02-8.24,.24,.04,3.19,8.38-.58,10.69c-.07,1.38,.98,2.56,2.37,2.64,1.37,.08,2.56-.97,2.64-2.37l.61-11.22c.02-.35-.04-.7-.16-1.03-2.93-7.69-4.01-10.47-4.01-10.47l.5-3.34-4.9-7.57,5.53,5.36c.54,.53,1.34,.69,2.04,.44l9.82-3.53c.71-.26,1.19-.88,1.29-1.59,.26,.29,.69,.37,1.04,.18,.41-.22,.57-.74,.34-1.15l-.36-.66c.24-.01,.48-.02,.72-.03,1.24-.06,2.32-.11,2.9-.14,.26-.01,.46-.22,.46-.48v-.91c0-.26-.2-.47-.46-.48Z"/><path class="b" d="M42.1,36.05v.22c0,.1-.14,.2-.28,.2-.16,0-.28-.1-.28-.2v-.19c-.89-.03-1.62-.49-1.62-.96,0-.25,.22-.62,.5-.62,.31,0,.56,.44,1.11,.53v-1.2c-.68-.26-1.48-.58-1.48-1.53s.7-1.39,1.48-1.51v-.21c0-.1,.12-.2,.28-.2,.14,0,.28,.1,.28,.2v.19c.46,.01,1.33,.13,1.33,.65,0,.2-.13,.61-.46,.61-.24,0-.39-.24-.87-.27v1.08c.68,.25,1.46,.6,1.46,1.6,0,.92-.59,1.48-1.46,1.62Zm15.37-19.35c-.25-1.63-1.65-2.72-3.13-2.45l-4.91,.91c-1.48,.27-2.48,1.82-2.23,3.44l.48,3.09,1-.13,1.19-1.54-1.68,3.39-4.21,.49c.17-.46-.17-.94-.65-.94h-3.17c-.5,0-.84,.52-.64,.98l.32,.72c-.67,.47-1.07,1.28-.96,2.14,.06,.51,.28,.97,.61,1.31-.4,.44-.82,.93-1.21,1.44-1.07,1.39-1.97,2.96-1.97,4.27,0,3.22,2.44,5.83,5.44,5.83s5.44-2.61,5.44-5.83c0-1.11-.65-2.4-1.5-3.62-.42-.61-.9-1.2-1.37-1.73l5.63-.65c.77-.09,1.45-.56,1.79-1.26,.4-.8,3.31-6.68,3.72-7.52l-1.99,8.29c-.24,1.21-1.22,2.18-2.28,2.32-.98,.12,0,0-2.27,.29,.23,1.49-.11-.72,.77,4.99v20.78c-.01,1.43,1.15,2.6,2.59,2.6s2.6-1.16,2.6-2.6v-21.6l2.02-.37v21.98c0,.86-.24,1.67-.65,2.36,.33,.15,.7,.24,1.09,.24,1.43,0,2.6-1.16,2.6-2.6l.05-22.55-2.53-16.46Z"/><path class="b" d="M46.73,4.91c.59,0,1.15,.11,1.69,.34s1.02,.54,1.43,.96c.41,.41,.73,.89,.96,1.43,.22,.54,.34,1.11,.34,1.69s-.11,1.15-.34,1.69c-.22,.54-.54,1.02-.96,1.43-.41,.41-.89,.73-1.43,.96s-1.11,.34-1.69,.34-1.15-.11-1.69-.34c-.54-.22-1.02-.54-1.43-.96-.41-.41-.73-.89-.96-1.43-.22-.54-.34-1.11-.34-1.69s.11-1.15,.34-1.69c.22-.54,.54-1.02,.96-1.43,.41-.41,.89-.73,1.43-.96,.54-.22,1.11-.34,1.69-.34Z"/><path class="b" d="M42.03,34.02v.99c.25-.06,.45-.2,.45-.47,0-.24-.19-.4-.45-.53Z"/><path class="b" d="M41.14,32.18c0,.22,.19,.35,.47,.47v-.88c-.33,.07-.47,.24-.47,.42Z"/><path class="b" d="M21.56,8.47c-.14-.89-.97-1.5-1.86-1.37-.37,.06-.74,.1-1.12,.13l-.45-3.93c-.04-.33-.33-.57-.66-.54l-1.94,.15c-.54,.04-1.09-.04-1.6-.24l-1.82-.71c-.31-.12-.65,.02-.78,.33l-1.57,3.63c-.35-.14-.69-.29-1.03-.45-.81-.39-1.79-.05-2.18,.77-.39,.81-.05,1.79,.77,2.17,.67,.32,1.35,.6,2.04,.85-.05,.19-.1,.38-.13,.58-.36,2.41,1.3,4.66,3.71,5.03,2.41,.36,4.66-1.3,5.03-3.71,.03-.2,.05-.41,.05-.61,.72-.04,1.44-.11,2.16-.22,.89-.13,1.5-.97,1.37-1.86Z"/></svg>