<?xml version="1.0" encoding="UTF-8"?><svg id="a" xmlns="http://www.w3.org/2000/svg" viewBox="0 0 60 60"><defs><style>.b{fill:#fff;}</style></defs><path class="b" d="M31.35,29.03s0-.05-.01-.08c0-.03,0-.06-.02-.11l-.81-3.53,5.72-8.09s0-.01,.01-.02l.02-.03s.05-.08,.08-.12l.03-.05s.04-.07,.06-.11c.01-.02,.02-.04,.02-.05l.03-.08s.03-.08,.04-.13c0-.02,.01-.04,.02-.07,.01-.04,.02-.08,.03-.12,0-.02,0-.05,.01-.07l-.66-.1,.67,.07s0-.06,.01-.09c0-.03,0-.06,0-.09l-.67-.04h.67s0-.04,0-.06c0-.04,0-.07,0-.12,0-.02,0-.05,0-.08,0-.04,0-.07-.01-.12,0-.02,0-.04-.01-.06,0-.03-.01-.05-.02-.09v-.02s-.02-.05-.02-.07c-.01-.03-.02-.07-.03-.09-.01-.03-.02-.07-.04-.11-.01-.03-.02-.05-.03-.06-.01-.03-.03-.07-.05-.11l-.04-.07s-.03-.06-.06-.1c-.01-.02-.03-.04-.05-.07-.02-.03-.04-.06-.07-.09-.02-.02-.04-.04-.05-.06l-.5,.44,.48-.46s-.04-.04-.05-.05c-.03-.03-.06-.06-.09-.09-.02-.02-.04-.04-.05-.04-.04-.03-.08-.06-.1-.08-.01-.01-.03-.02-.04-.03l-.05-.03s-.05-.03-.08-.05c-.02-.01-.05-.03-.06-.04-.02-.01-.04-.02-.08-.04-.02-.01-.05-.02-.07-.03l-11.98-5.06L18.83,1.01c-.35-.63-1.02-1.01-1.74-1.01-.35,0-.69,.09-.99,.26-.47,.26-.8,.7-.94,1.21-.14,.51-.07,1.05,.19,1.52l4.99,8.75c.26,.46,.7,.8,1.21,.94l10,4.22-4.82,6.81s-.02,.03-.03,.05l-.05,.08s-.03,.05-.05,.09c-.01,.03-.03,.06-.04,.08-.01,.03-.03,.06-.04,.1-.01,.03-.02,.05-.04,.1-.01,.03-.02,.05-.03,.09,0,.03-.01,.05-.02,.09,0,.03-.01,.06-.02,.1,0,.03-.01,.06-.02,.1,0,.03,0,.06-.01,.08,0,.03,0,.07,0,.1v.03s0,.05,0,.08c0,.03,0,.07,0,.1,0,.03,0,.06,0,.09,0,.03,0,.07,.01,.1,0,.03,0,.06,.02,.09l.58,2.53-14.06,3.81h-.04s-.07,.03-.1,.04h-.02s-.04,.02-.06,.03c-.04,.01-.07,.03-.1,.04-.03,.01-.06,.03-.08,.04-.03,.02-.06,.03-.08,.05-.03,.02-.07,.04-.1,.06-.03,.02-.05,.03-.08,.06-.03,.02-.05,.04-.07,.05-.02,.02-.04,.03-.06,.05l.44,.5-.46-.48s-.04,.04-.07,.07c-.02,.02-.03,.03-.05,.05-.02,.03-.05,.05-.07,.08-.02,.02-.04,.04-.05,.07l.53,.41-.55-.38s-.03,.04-.04,.06c-.02,.03-.03,.05-.05,.08l.57,.35-.58-.33s-.03,.04-.04,.06c-.02,.03-.03,.06-.05,.1-.01,.02-.02,.04-.03,.07-.01,.03-.02,.06-.03,.09l-.03,.09s-.02,.06-.03,.12c0,.03-.01,.05-.02,.07,0,.03-.01,.06-.02,.11,0,.03-.01,.07-.02,.1v.07s-.01,.07-.01,.11v.05c0,8.15,6.63,14.78,14.78,14.78,1.1,0,2-.9,2-2s-.9-2-2-2c-5.35,0-9.93-4.03-10.67-9.27l14.32-3.88s.05-.01,.09-.02c.03-.01,.06-.02,.08-.03,.03-.01,.06-.03,.09-.04,.03-.01,.07-.03,.1-.04,.03-.01,.05-.03,.09-.05,.03-.01,.05-.03,.07-.04,.03-.02,.06-.04,.09-.06,.03-.02,.05-.04,.08-.06,.03-.02,.05-.04,.07-.06,.03-.02,.05-.04,.08-.07,.02-.02,.04-.04,.06-.06,.02-.02,.04-.05,.07-.07,.02-.03,.04-.05,.06-.07,.02-.02,.04-.05,.06-.08,.02-.03,.04-.05,.05-.07,.02-.03,.03-.05,.06-.09l.05-.09s.02-.05,.03-.07c.01-.03,.03-.06,.04-.09,.01-.03,.02-.06,.03-.08,.01-.03,.02-.06,.03-.1,.01-.03,.02-.07,.03-.09,0-.04,.02-.07,.02-.1,0-.04,.01-.07,.02-.09,0-.03,0-.07,.01-.1,0-.03,0-.07,0-.1,0-.03,0-.07,0-.09,0-.03,0-.07,0-.1,0-.03,0-.06-.01-.12h0Z"/><path class="b" d="M16.51,13.76c.3-.44,.41-.98,.31-1.5-.1-.53-.4-.98-.84-1.28-.33-.22-.72-.34-1.12-.34-.67,0-1.29,.33-1.66,.88-.89,1.31-2.07,2.28-3.35,2.72-1.07,.37-2.06,.31-2.77-.18-.33-.23-.72-.34-1.12-.34-.67,0-1.29,.33-1.66,.88-.62,.92-.38,2.16,.54,2.78,.43,.29,.9,.53,1.4,.71,.72,.26,1.49,.39,2.29,.39h0c.86,0,1.75-.16,2.64-.46,2.09-.72,3.99-2.23,5.36-4.26h0Z"/><path class="b" d="M38.18,33.23c-.41-.41-.96-.64-1.54-.64s-1.13,.23-1.54,.64c-.41,.41-.64,.96-.64,1.54s.23,1.13,.64,1.54c1.15,1.15,1.79,2.68,1.79,4.31s-.63,3.16-1.79,4.31c-.41,.41-.64,.96-.64,1.54s.23,1.13,.64,1.54c.41,.41,.96,.64,1.54,.64s1.13-.23,1.54-.64c1.97-1.97,3.06-4.6,3.06-7.39s-1.09-5.42-3.06-7.39h0Z"/><path class="b" d="M43.17,28.53c-.41-.41-.96-.64-1.54-.64s-1.13,.23-1.54,.64c-.41,.41-.64,.96-.64,1.54s.23,1.13,.64,1.54c2.6,2.6,4.03,6.06,4.03,9.73s-1.43,7.13-4.03,9.73c-.85,.85-.85,2.23,0,3.08,.41,.41,.96,.64,1.54,.64s1.13-.23,1.54-.64c3.42-3.43,5.31-7.97,5.31-12.81s-1.89-9.39-5.31-12.81h0Z"/><path class="b" d="M48.59,23.32c-.41-.41-.96-.64-1.54-.64s-1.13,.23-1.54,.64c-.85,.85-.85,2.23,0,3.08,3.99,3.99,6.19,9.3,6.19,14.94s-2.2,10.95-6.19,14.94c-.85,.85-.85,2.23,0,3.08,.41,.41,.96,.64,1.54,.64s1.13-.23,1.54-.64c4.82-4.82,7.47-11.22,7.47-18.02s-2.65-13.2-7.47-18.02h0Z"/></svg>