<?xml version="1.0" encoding="utf-8"?>
<!-- Generator: Adobe Illustrator 26.3.1, SVG Export Plug-In . SVG Version: 6.00 Build 0)  -->
<svg version="1.1" id="Layer_1" xmlns="http://www.w3.org/2000/svg" xmlns:xlink="http://www.w3.org/1999/xlink" x="0px" y="0px"
	 viewBox="0 0 461 266" style="enable-background:new 0 0 461 266;" xml:space="preserve">
<style type="text/css">
	.st0{fill:#FFFFFF;}
	.st1{clip-path:url(#SVGID_00000142883289888244479980000000196414347153820818_);}
	.st2{fill:#260D57;}
	.st3{fill:#38B6FF;}
	.st4{clip-path:url(#SVGID_00000014632949511670267800000016790654974228812203_);}
	.st5{fill:#FAA91C;}
</style>
<path class="st0" d="M314.1,155.3c0,0-1,44.9-59.9,40.2c-24.6-1.9-44.9-11-64.6-21.7c-1.9,1.8-3.8,3.7-5.7,5.6
	c-6.1,6.1-12.2,11.9-18.1,17.4c33.4,17,63.1,27.6,87,26.4C324.2,219.5,314.1,155.3,314.1,155.3"/>
<path class="st0" d="M137.5,113.9c0-16.1-13-29.1-29.1-29.1s-29.1,13-29.1,29.1c0,7.3,2.7,14,7.2,19.1c-7.3-0.5-15.1-0.4-23.3,0.3
	c-29.2,2.5-51.5,21.1-54.2,44.4c-3.3,29.5,24.7,45.3,24.7,45.3s-25.3-27.4,3.1-48.5c21.1-15.7,51.6-14.7,99.6,7.6
	c8.4-7.8,16.2-16.1,24.1-24.5c-12.3-6.7-25-13-39-17.6C131,135.1,137.5,125.3,137.5,113.9"/>
<path class="st0" d="M189.6,173.8c-1.9,1.8-3.8,3.7-5.7,5.6c-6.1,6.1-12.2,11.9-18.1,17.4c7.5,3.8,14.9,7.3,22,10.4
	c5.9-5.3,11.8-11,17.8-17.1c1.9-1.9,3.9-3.8,5.8-5.7C203.9,181.3,196.7,177.7,189.6,173.8"/>
<g>
	<defs>
		<rect id="SVGID_1_" x="33" y="51" width="301.7" height="194.8"/>
	</defs>
	<clipPath id="SVGID_00000036249175788584477150000000795120604772190883_">
		<use xlink:href="#SVGID_1_"  style="overflow:visible;"/>
	</clipPath>
	<g style="clip-path:url(#SVGID_00000036249175788584477150000000795120604772190883_);">
		<path class="st2" d="M331.2,127.6c-6.6-15.1-21.8-25.1-40.2-27.5c4.9-5.2,7.9-12.2,7.9-19.9c0-16.1-13-29.1-29.1-29.1
			c-16.1,0-29.1,13-29.1,29.1c0,10.2,5.2,19.1,13.1,24.3c-72.6,22.1-89.4,87.8-151.6,112.4c-54.9,21.8-69-20.8-69-20.8
			s9.2,64.3,78.6,46.8c25.3-6.4,53-28.3,82.8-58.1c47.8-47.9,81.1-62.1,109.2-52.1c33.3,11.9,17.3,45.5,17.3,45.5
			S343.1,154.8,331.2,127.6"/>
	</g>
</g>
<path class="st3" d="M429.4,144.2c0,0-1.2,56.4-75.3,50.5c-31-2.4-56.5-13.9-81.3-27.3c-2.4,2.3-4.8,4.6-7.2,7.1
	c-7.7,7.7-15.3,15-22.8,21.8c42.1,21.3,79.4,34.7,109.5,33.1C442.2,224.8,429.4,144.2,429.4,144.2"/>
<path class="st3" d="M207.3,92.2c0-20.2-16.4-36.6-36.6-36.6S134,72,134,92.2c0,9.2,3.4,17.6,9,24c-9.2-0.6-19-0.6-29.3,0.3
	c-36.7,3.2-64.9,26.5-68.2,55.7c-4.2,37,31.1,56.9,31.1,56.9s-31.8-34.4,3.9-61c26.5-19.8,64.9-18.4,125.3,9.6
	c10.5-9.8,20.3-20.3,30.3-30.8c-15.5-8.5-31.5-16.4-49.1-22.1C199.1,118.8,207.3,106.4,207.3,92.2"/>
<path class="st3" d="M272.8,167.4c-2.4,2.3-4.8,4.6-7.2,7.1c-7.7,7.7-15.3,15-22.8,21.8c9.5,4.8,18.7,9.2,27.7,13.1
	c7.4-6.7,14.8-13.9,22.4-21.4c2.4-2.4,4.9-4.8,7.2-7.1C290.8,176.9,281.7,172.3,272.8,167.4"/>
<g>
	<defs>
		<rect id="SVGID_00000015312579443804711630000004406128101927282331_" x="75.7" y="13.2" width="379.7" height="244.8"/>
	</defs>
	<clipPath id="SVGID_00000075146005942455825810000006817508891991075713_">
		<use xlink:href="#SVGID_00000015312579443804711630000004406128101927282331_"  style="overflow:visible;"/>
	</clipPath>
	<g style="clip-path:url(#SVGID_00000075146005942455825810000006817508891991075713_);">
		<path class="st5" d="M451,109.4c-8.3-18.9-27.4-31.5-50.6-34.6c6.2-6.5,10-15.4,10-25.1c0-20.2-16.4-36.6-36.6-36.6
			c-20.2,0-36.6,16.4-36.6,36.6c0,12.8,6.5,24,16.5,30.5C262.1,108,241.1,190.5,162.8,221.5c-69.1,27.4-86.9-26.2-86.9-26.2
			s11.6,80.8,98.9,58.8c31.8-8,66.7-35.6,104.2-73c60.2-60.2,102.1-78,137.4-65.4c42,14.9,21.7,57.1,21.7,57.1
			S465.9,143.5,451,109.4"/>
	</g>
</g>
</svg>
